<?xml version="1.0" encoding="utf-8"?>
<!-- Generator: Adobe Illustrator 22.1.0, SVG Export Plug-In . SVG Version: 6.00 Build 0)  -->
<svg version="1.1" id="master-artboard" xmlns="http://www.w3.org/2000/svg" xmlns:xlink="http://www.w3.org/1999/xlink" x="0px"
	 y="0px" viewBox="0 0 16 16" style="enable-background:new 0 0 16 16;" xml:space="preserve">
<style type="text/css">
	.st0{fill:#05396B;}
</style>
<path class="st0" d="M5,5.3c0.5-1.7,0.9-2.5,1.4-2.5c0.5,0,0.9,0.5,1.2,1.4c0.2,0.5,0.3,1,0.4,1.5L8,6C8,6.7,8.1,7,8.1,7.2
	c0,0.2,0,0.3,0,0.4c0,0.1,0,0.1,0,0.2v0.4c0,0.5,0,0.8,0,1v6.3H5.8V9.4V9.2c0-1-0.1-1.5-0.3-1.5c-0.2,0-0.3,0.6-0.3,1.7v0.7v5.4H4.1
	h-1V10V9.3c0-0.9-0.1-1.4-0.3-1.6C2.5,7.8,2.4,8.3,2.4,9.2v0.6v5.7H1.2H0V9.3V3.1h1h1l0,0.3C2.2,4.3,2.3,5,2.3,5.5
	c0.2-0.8,0.4-1.4,0.6-2C3.1,3,3.3,2.7,3.5,2.7c0.1,0,0.1,0,0.2,0C4,2.7,4.2,3,4.4,3.5C4.6,4,4.8,4.6,5,5.3z M10.4,6.7c0,2,0,4,0,6
	v3.1H10H9.9l-1.3,0.1c-0.1,0-0.1,0-0.1,0s0-0.1,0-0.2v-0.1v-0.1c0-0.5,0-1.1,0-1.8l0-11.6V1.7V1.2v-1c0-0.1,0-0.2,0-0.2H9h0.3
	c0.7,0,1.2,0.1,1.5,0.1c0.3,0.1,0.5,0.1,0.7,0.1c0.1,1.2,0.2,2.7,0.3,4.7l0.3,3.7h0.1l0.5-6.8c0-0.1,0-0.4,0.1-0.9
	c0-0.5,0.1-0.8,0.1-0.8h0l2.4-0.1h0.2h0.4c0,0,0,0.2,0,0.4l0,3.9c0,3.3,0.1,5.8,0.1,7.6c0,1.4,0,2.7,0,3.9c0,0.1-0.1,0.2-0.2,0.2
	h-0.2c-0.1,0-0.2,0-0.3,0h-0.2c-0.2,0-0.6,0-1.1,0C14,15.8,14,14.9,14,13.2V10V9.1c0-0.7,0-1.3,0-1.7l-0.2-0.1
	c-0.1,0.8-0.2,2.7-0.5,5.6l0,0.4c0,0.2-0.1,0.6-0.1,1.1c0,0.6-0.1,1-0.1,1.2c0,0.1-0.2,0.2-0.4,0.2h-0.1l-0.4-0.1H12h-0.2h-0.3h-0.1
	c-0.1,0-0.2-0.1-0.2-0.2l0,0l-0.3-4.1c0-0.1,0-0.3-0.1-0.7c0-0.4-0.1-0.6-0.1-0.9l-0.3-3.4H10.4z"/>
</svg>
