<?xml version="1.0" encoding="utf-8"?>
<!-- Generator: Adobe Illustrator 27.0.0, SVG Export Plug-In . SVG Version: 6.00 Build 0)  -->
<svg version="1.1" id="master-artboard" xmlns="http://www.w3.org/2000/svg" xmlns:xlink="http://www.w3.org/1999/xlink" x="0px"
	 y="0px" viewBox="0 0 720 504" style="enable-background:new 0 0 720 504;" xml:space="preserve">
<style type="text/css">
	.st0{fill:#5CDB94;}
	.st1{fill:none;stroke:#05396B;stroke-width:1.123;stroke-miterlimit:11.2304;}
</style>
<path class="st0" d="M-2-0.6h724v504H-2V-0.6z"/>
<g transform="matrix(1.1230360247361049, 0, 0, 1.1230360247361049, -25.826900947027255, -24.00885794573506)">
	<g>
		<path class="st1" d="M665.8,161.3h-19"/>
		<path class="st1" d="M645.3,161.3h-2.1"/>
		<path class="st1" d="M641.7,161.3h-1"/>
		<path class="st1" d="M672.2,161.3h-2.1"/>
		<path class="st1" d="M668.6,161.3h-1"/>
		<path class="st1" d="M665.8,158.9h-21.6"/>
	</g>
	<g>
		<path class="st1" d="M483.4,74.7h-19"/>
		<path class="st1" d="M462.8,74.7h-2.1"/>
		<path class="st1" d="M459.2,74.7h-1"/>
		<path class="st1" d="M489.7,74.7h-2.1"/>
		<path class="st1" d="M486.1,74.7h-1"/>
		<path class="st1" d="M483.4,72.3h-21.6"/>
	</g>
	<g>
		<path class="st1" d="M650,150.3l3.2,3.1"/>
		<path class="st1" d="M653.2,150.3l-3.2,3.1"/>
	</g>
	<g>
		<path class="st1" d="M450.4,72.3l3.2,3.1"/>
		<path class="st1" d="M453.7,72.3l-3.2,3.1"/>
	</g>
	<g>
		<path class="st1" d="M612,178.1l-3.2-3.1"/>
		<path class="st1" d="M608.8,178.1l3.2-3.1"/>
	</g>
	<g>
		<path class="st1" d="M178.9,91.8h-19"/>
		<path class="st1" d="M185.3,91.8h-2.1"/>
		<path class="st1" d="M181.6,91.8h-1"/>
		<path class="st1" d="M178.9,89.4h-21.6"/>
	</g>
	<g>
		<path class="st1" d="M146,89.4l3.2,3.1"/>
		<path class="st1" d="M149.2,89.4l-3.2,3.1"/>
	</g>
	<g>
		<path class="st1" d="M278,36.2l3.2,3.1"/>
		<path class="st1" d="M281.2,36.2l-3.2,3.1"/>
	</g>
	<path class="st1" d="M180.6,67.3c0,0.9-0.7,1.6-1.6,1.6l0,0c-0.9,0-1.6-0.7-1.6-1.6l0,0c0-0.9,0.7-1.6,1.6-1.6l0,0
		C179.8,65.8,180.6,66.4,180.6,67.3L180.6,67.3z"/>
	<path class="st1" d="M182.9,205.3c0,0.9-0.7,1.6-1.6,1.6l0,0c-0.9,0-1.6-0.7-1.6-1.6l0,0c0-0.9,0.7-1.6,1.6-1.6l0,0
		C182.2,203.8,182.9,204.5,182.9,205.3L182.9,205.3z"/>
	<g>
		<path class="st1" d="M163.4,203.8l3.2,3.1"/>
		<path class="st1" d="M166.7,203.8l-3.2,3.1"/>
	</g>
	<g>
		<path class="st1" d="M113.9,90.7v2"/>
		<path class="st1" d="M113.9,94.1v1"/>
	</g>
	<path class="st1" d="M106.2,86c0,0.9-0.7,1.6-1.6,1.6S103,86.9,103,86s0.7-1.6,1.6-1.6S106.2,85.1,106.2,86z"/>
	<g>
		<path class="st1" d="M590.2,124h-19"/>
		<path class="st1" d="M596.5,124h-2.1"/>
		<path class="st1" d="M592.9,124h-1"/>
		<path class="st1" d="M590.2,121.6h-21.6"/>
	</g>
	<g>
		<path class="st1" d="M267.7,37.6h-19"/>
		<path class="st1" d="M274,37.6h-2.1"/>
		<path class="st1" d="M270.4,37.6h-1"/>
		<path class="st1" d="M45,120.7H23.4"/>
	</g>
	<g>
		<path class="st1" d="M557.2,121.6l3.2,3.1"/>
		<path class="st1" d="M560.4,121.6l-3.2,3.1"/>
	</g>
	<path class="st1" d="M591.8,99.5c0,0.9-0.7,1.6-1.6,1.6l0,0c-0.9,0-1.6-0.7-1.6-1.6l0,0c0-0.9,0.7-1.6,1.6-1.6l0,0
		C591.1,98,591.8,98.6,591.8,99.5L591.8,99.5z"/>
	<g>
		<path class="st1" d="M525.1,122.9v2"/>
		<path class="st1" d="M525.1,126.3v1"/>
	</g>
	<path class="st1" d="M517.4,118.2c0,0.9-0.7,1.6-1.6,1.6l0,0c-0.9,0-1.6-0.7-1.6-1.6l0,0c0-0.9,0.7-1.6,1.6-1.6l0,0
		C516.7,116.6,517.4,117.3,517.4,118.2L517.4,118.2z"/>
</g>
</svg>
