<?xml version="1.0" encoding="utf-8"?>
<!-- Generator: Adobe Illustrator 27.0.0, SVG Export Plug-In . SVG Version: 6.00 Build 0)  -->
<svg version="1.1" id="master-artboard" xmlns="http://www.w3.org/2000/svg" xmlns:xlink="http://www.w3.org/1999/xlink" x="0px"
	 y="0px" viewBox="0 0 720 504" style="enable-background:new 0 0 720 504;" xml:space="preserve">
<style type="text/css">
	.st0{fill:#52B980;}
	.st1{fill:#053A6B;}
</style>
<g transform="matrix(1, 0, 0, 1, 0, 0)">
	<path class="st0" d="M707.7,335.2c-4.6-7.6-14-10.4-22.5-12.8c-21.6-6.1-42.8-13.4-63.7-21.7c-11.9-4.8-23.9-10.1-33.1-18.9
		c-12.7-12.3-18.7-30-30.4-43.3c-21.3-24.1-58.8-28.7-89.2-18.1c-30.4,10.7-54.7,33.8-75.4,58.5c-13,15.5-25,32-40.2,45.2
		s-34.6,23.2-54.8,22.5c-25.5-0.8-47.2-17.9-70.8-27.7c-52.5-21.8-118.4-3.2-152.5,41.9c-2.8,3.7-5.1,7.9-6.8,12.2l-0.7,1.8
		c-9.1,22.4-2.6,48.4,16.5,63.3c0.5,0.4,1,0.8,1.6,1.2c14.8,10.9,32.9,16.4,50.7,21c168.9,44.3,348,32,519.5-0.9
		c12.1-2.3,24.9-5.1,33.6-13.9c8.3-8.3,11.2-20.5,13.3-32c3.6-19.3,6.1-38.8,7.6-58.3C711,348.4,711.3,341.1,707.7,335.2z"/>
</g>
<g>
	<path class="st1" d="M441.9,237.3h7.7c0.9,0,1.5-1.2,1.3-2.3l-3.7-22.5c-0.2-1-1.3-1-1.5,0l-5.1,22.5
		C440.4,236.2,441,237.3,441.9,237.3z"/>
	<path class="st1" d="M446.2,232.8l-1.3,6.7l1.7-0.6c0.1,0,0.1-0.1,0.1-0.2L446.2,232.8z"/>
</g>
<g>
	<path class="st1" d="M548.7,238.8h6.1c0.7,0,1.2-0.9,1-1.9l-2.9-18.3c-0.2-0.8-1-0.8-1.2,0l-4.1,18.3
		C547.6,237.9,548.1,238.8,548.7,238.8z"/>
	<polygon class="st1" points="552.1,235.1 551.2,240.2 552.5,240 	"/>
</g>
<g>
	<path class="st1" d="M554.7,251.7h4.9c0.5,0,0.9-0.6,0.8-1.2l-2.3-11.7c-0.1-0.5-0.8-0.5-0.9,0l-3.2,11.7
		C553.8,251.1,554.2,251.7,554.7,251.7z"/>
	<polygon class="st1" points="557.5,249.8 556.7,253.2 557.9,252.9 	"/>
</g>
<g>
	<path class="st1" d="M430.4,248h6.8c0.8,0,1.3-1,1.1-2l-3.2-19c-0.2-0.9-1.1-0.9-1.3,0l-4.5,19C429.1,247,429.7,248,430.4,248z"/>
	<polygon class="st1" points="433.7,245.4 433.1,249.6 434.5,249.5 	"/>
</g>
<g>
	<path class="st1" d="M444.3,257.1h-6.6c-0.7,0-1.3-0.8-1.1-1.6l3.1-15.4c0.2-0.7,1.1-0.7,1.2,0l4.3,15.4
		C445.5,256.3,445,257.1,444.3,257.1z"/>
	<polygon class="st1" points="440.3,255.9 441.3,255.7 441.5,259.7 440.1,259.6 	"/>
</g>
<g>
	<path class="st1" d="M469.7,219.8h18.9c2.1,0,3.6-1.9,3.1-3.7l-9.5-50.3c-1.3-3.4-3.1-1.7-3.6,0l-12,50.3
		C466,217.9,467.6,219.8,469.7,219.8z"/>
	<path class="st1" d="M481.4,215.2l-2.1,0.3c-0.2,0-0.4,0.2-0.5,0.5l-1.2,7.7c-0.1,0.4,0.3,0.7,0.7,0.6l3.3-0.7
		c0.3-0.1,0.4-0.3,0.4-0.5l0-7.3C482.1,215.5,481.8,215.2,481.4,215.2z"/>
</g>
<g>
	<path class="st1" d="M488.6,241.5h11.5c1.3,0,2.2-1.5,1.9-3l-5.5-28.4c-0.3-1.3-1.9-1.3-2.2,0l-7.6,28.4
		C486.4,240,487.3,241.5,488.6,241.5z"/>
	<path class="st1" d="M495.2,238.5l-1,1.3c0,0.1-0.1,0.1-0.1,0.2l-0.7,6.3c0,0.3,0.3,0.6,0.6,0.5l1.7-0.5c0.2-0.1,0.3-0.3,0.3-0.5
		L495.2,238.5z"/>
</g>
<g>
	<path class="st1" d="M498.5,226h14c1.6,0,3.6,0,3.2-1.4l-7.5-28.4c-0.4-1.2-2.3-1.2-2.6,0l-9.2,26.9
		C495.8,224.6,496.9,226,498.5,226z"/>
	<path class="st1" d="M506.4,224.4l-1.8-0.6c-0.2-0.1-0.4,0.1-0.4,0.3l-0.3,5.7c0,0.2,0.1,0.3,0.3,0.3l2.9-0.2
		c0.2,0,0.3-0.2,0.3-0.3l-0.9-4.8C506.6,224.5,506.5,224.4,506.4,224.4z"/>
</g>
</svg>
