<?xml version="1.0" encoding="utf-8"?>
<!-- Generator: Adobe Illustrator 27.0.0, SVG Export Plug-In . SVG Version: 6.00 Build 0)  -->
<svg version="1.1" id="master-artboard" xmlns="http://www.w3.org/2000/svg" xmlns:xlink="http://www.w3.org/1999/xlink" x="0px"
	 y="0px" viewBox="0 0 720 504" style="enable-background:new 0 0 720 504;" xml:space="preserve">
<style type="text/css">
	.st0{fill:#8DE4AF;}
	.st1{fill:#14335D;}
</style>
<path class="st0" d="M722,168.7c-15.1,8.9-33.1,17.7-54.1,24.7c-5.8,1.9-11.6,3.6-17.1,5.1c0,0-52.3,9.1-62.3,24.5
	c-0.6,0.9-3.4,5.3-7.9,11.2c-1.5,2-3.3,4.2-5.6,6.7c-9.4,10.2-18.9,17.1-23.7,20.9c-3.8,3-8.3,6.1-14.3,9.5
	c-25.3,14.5-56.5,13.7-85.8,12.4c-30.1-1.3-60.2-2.6-90.3-4c-22.2-1-45.5-2.2-64.8-13.1c-20.4-11.5-35.9-33.2-59.1-36.6
	c-22.7-3.3-45.8,12.5-67.9,6.4c-16.9-4.6-27.6-20.4-39.6-33C96.4,169.2,43.7,156-2,170.3v201.6c1.5,1.2,2.2,2.4,3.9,3.6
	C16,385.3,33,390,49.7,394.1c153.5,37.3,314.1,36.7,471.8,24.4c60.1-4.7,120.7-11.1,178.1-29.2c7.7-2.4,15-3.5,22.4-6.9
	C722,311.2,722,239.9,722,168.7z"/>
<g>
	<path class="st1" d="M269.9,253.1h3.9c0.4,0,0.7-0.5,0.6-1l-1.8-8.2c-0.3-1.8-0.6-0.5-0.7,0l-2.6,8.2
		C269.1,252.6,269.4,253.1,269.9,253.1z"/>
</g>
<g>
	<path class="st1" d="M268,250.8h2.8c0.3,0,0.5-0.4,0.5-0.8l-1.3-6.1c-0.2-1.4-0.5-0.4-0.5,0l-1.9,6.1
		C267.4,250.4,267.7,250.8,268,250.8z"/>
</g>
<g>
	<path class="st1" d="M274.4,257.1h2.8c0.3,0,0.5-0.4,0.5-0.8l-1.3-6.1c-0.2-1.4-0.5-0.4-0.5,0l-1.9,6.1
		C273.9,256.7,274.1,257.1,274.4,257.1z"/>
</g>
<g>
	<path class="st1" d="M264.8,249.5h3.6c0.4,0,0.7-0.6,0.6-1.2l-1.7-9.5c-0.2-2-0.6-0.5-0.7,0l-2.4,9.5
		C264.1,248.9,264.4,249.5,264.8,249.5z"/>
</g>
<g>
	<path class="st1" d="M261.8,250.1h3.6c0.4,0,0.7-0.5,0.6-1l-1.7-8.2c-0.2-1.8-0.6-0.5-0.7,0l-2.4,8.2
		C261.1,249.6,261.4,250.1,261.8,250.1z"/>
</g>
<g>
	<path class="st1" d="M257,245.6h3.6c0.4,0,0.7-0.5,0.6-1l-1.7-8.2c-0.2-1.8-0.6-0.5-0.7,0l-2.4,8.2
		C256.3,245,256.6,245.6,257,245.6z"/>
</g>
<g>
	<path class="st1" d="M276.1,260.1h3.6c0.4,0,0.7-0.5,0.6-1l-1.7-8.2c-0.2-1.8-0.6-0.5-0.7,0l-2.4,8.2
		C275.4,259.6,275.7,260.1,276.1,260.1z"/>
</g>
<g>
	<path class="st1" d="M252.3,241.8h2.7c0.3,0,0.5-0.5,0.4-1l-1.3-8.2c-0.2-1.8-0.4-0.5-0.5,0l-1.8,8.2
		C251.8,241.3,252,241.8,252.3,241.8z"/>
</g>
<g>
	<path class="st1" d="M248.3,244.1h3.1c0.3,0,0.6-0.6,0.5-1.2l-1.4-9.5c-0.2-2-0.5-0.5-0.6,0l-2,9.5
		C247.7,243.6,247.9,244.1,248.3,244.1z"/>
</g>
<g>
	<path class="st1" d="M244.4,239.3h3.1c0.3,0,0.6-0.5,0.5-1l-1.4-8.2c-0.2-1.8-0.5-0.5-0.6,0l-2,8.2
		C243.8,238.8,244,239.3,244.4,239.3z"/>
</g>
<g>
	<path class="st1" d="M247.1,239.5h3.1c0.3,0,0.6-0.4,0.5-0.9l-1.4-6.9c-0.2-1.6-0.5-0.4-0.6,0l-2,6.9
		C246.5,239,246.7,239.5,247.1,239.5z"/>
	<polygon class="st1" points="248.7,238.5 248.2,240.8 248.9,240.8 	"/>
</g>
<g>
	<path class="st1" d="M240,235.2h2.5c0.3,0,0.5-0.5,0.4-1l-1.2-8.2c-0.2-1.8-0.4-0.5-0.5,0l-1.7,8.2
		C239.5,234.7,239.7,235.2,240,235.2z"/>
</g>
<g>
	<path class="st1" d="M242.1,239.9h3.9c0.4,0,0.7-0.5,0.6-1l-1.8-8.2c-0.3-1.8-0.6-0.5-0.7,0l-2.6,8.2
		C241.3,239.4,241.6,239.9,242.1,239.9z"/>
</g>
<g>
	<path class="st1" d="M601.5,220.6h-3.7c-0.4,0-0.7-0.5-0.6-0.9l1.8-8.9c0.3-1.6,0.6-0.4,0.7,0l2.5,8.9
		C602.2,220.1,601.9,220.6,601.5,220.6z"/>
</g>
<g>
	<path class="st1" d="M603.9,219h-2.7c-0.3,0-0.5-0.4-0.4-0.7l1.3-7c0.2-1.3,0.4-0.3,0.5,0l1.8,7C604.5,218.6,604.2,219,603.9,219z"
		/>
</g>
<g>
	<path class="st1" d="M607,217.8h-3.5c-0.4,0-0.7-0.5-0.6-1l1.6-10c0.2-1.8,0.6-0.5,0.7,0l2.3,10C607.7,217.3,607.4,217.8,607,217.8
		z"/>
</g>
<g>
	<path class="st1" d="M612.9,214.7h-3.5c-0.4,0-0.7-0.5-0.6-0.9l1.6-8.9c0.2-1.6,0.6-0.4,0.7,0l2.3,8.9
		C613.5,214.3,613.3,214.7,612.9,214.7z"/>
</g>
<g>
	<path class="st1" d="M616,213.3h-4.4c-0.5,0-0.8-0.5-0.7-0.9l2.1-8.9c0.3-1.6,0.7-0.4,0.8,0l2.9,8.9
		C616.9,212.8,616.5,213.3,616,213.3z"/>
</g>
<g>
	<path class="st1" d="M620.9,216.5h-3.5c-0.4,0-0.7-0.5-0.6-1l1.6-10c0.2-1.8,0.6-0.5,0.7,0l2.3,10
		C621.5,216,621.3,216.5,620.9,216.5z"/>
</g>
<g>
	<path class="st1" d="M625.3,209.9h-3.5c-0.4,0-0.7-0.5-0.6-0.9l1.6-8.9c0.2-1.6,0.6-0.4,0.7,0l2.3,8.9
		C625.9,209.4,625.7,209.9,625.3,209.9z"/>
</g>
<g>
	<path class="st1" d="M622.2,212.4h-3.5c-0.4,0-0.7-0.4-0.6-0.8l1.6-7.7c0.2-1.4,0.6-0.4,0.7,0l2.3,7.7
		C622.9,212,622.6,212.4,622.2,212.4z"/>
	<polygon class="st1" points="620.4,211.5 620.9,213.6 620.1,213.5 	"/>
</g>
<g>
	<path class="st1" d="M629.6,211.4h-4.4c-0.5,0-0.8-0.5-0.7-0.9l2.1-8.9c0.3-1.6,0.7-0.4,0.8,0l2.9,8.9
		C630.5,210.9,630.1,211.4,629.6,211.4z"/>
</g>
<g>
	<path class="st1" d="M237,233.3h2.3c0.3,0,0.4-0.5,0.4-1l-1.1-8.2c-0.2-1.8-0.4-0.5-0.4,0l-1.5,8.2
		C236.5,232.8,236.7,233.3,237,233.3z"/>
</g>
<g>
	<path class="st1" d="M120.6,200.6h3.1c0.3,0,0.6-0.5,0.5-1l-1.5-9.3c-0.2-1.7-0.5-0.4-0.6,0l-2,9.3
		C120.1,200.1,120.3,200.6,120.6,200.6z"/>
</g>
<g>
	<path class="st1" d="M123.6,203.9h2.2c0.2,0,0.4-0.4,0.4-0.8l-1.1-7.2c-0.2-1.3-0.4-0.3-0.4,0l-1.5,7.2
		C123.1,203.5,123.3,203.9,123.6,203.9z"/>
</g>
<g>
	<path class="st1" d="M118.3,197.8h2.8c0.3,0,0.5-0.5,0.5-1.1l-1.3-10.4c-0.2-1.9-0.5-0.5-0.5,0l-1.9,10.4
		C117.8,197.3,118,197.8,118.3,197.8z"/>
</g>
<g>
	<path class="st1" d="M168,240h2.7c0.3,0,0.5-0.5,0.4-1l-1.3-9.9c-0.2-1.8-0.4-0.5-0.5,0l-1.8,9.9C167.4,239.5,167.7,240,168,240z"
		/>
</g>
<g>
	<path class="st1" d="M169.8,241.1h2.7c0.3,0,0.5-0.4,0.4-0.7l-1.3-7c-0.2-1.3-0.4-0.3-0.5,0l-1.8,7
		C169.3,240.8,169.5,241.1,169.8,241.1z"/>
</g>
<g>
	<path class="st1" d="M171.6,241.8h2.7c0.3,0,0.5-0.5,0.4-1l-1.3-9.9c-0.2-1.8-0.4-0.5-0.5,0l-1.8,9.9
		C171.1,241.2,171.3,241.8,171.6,241.8z"/>
</g>
<g>
	<path class="st1" d="M163.9,238.2h2.7c0.3,0,0.5-0.5,0.4-0.9l-1.3-8.8c-0.2-1.6-0.4-0.4-0.5,0l-1.8,8.8
		C163.4,237.8,163.6,238.2,163.9,238.2z"/>
</g>
<g>
	<path class="st1" d="M111.8,194.5h2.8c0.3,0,0.5-0.5,0.5-1l-1.3-9.3c-0.2-1.7-0.5-0.4-0.5,0l-1.9,9.3
		C111.3,194,111.5,194.5,111.8,194.5z"/>
</g>
<g>
	<path class="st1" d="M115.3,199.7h3.6c0.4,0,0.7-0.5,0.6-1l-1.7-9.3c-0.2-1.7-0.6-0.4-0.7,0l-2.4,9.3
		C114.6,199.3,114.8,199.7,115.3,199.7z"/>
</g>
<g>
	<path class="st1" d="M75.2,175.3h3.6c0.4,0,0.7-0.5,0.6-1l-1.7-9.3c-0.2-1.7-0.6-0.4-0.7,0l-2.4,9.3
		C74.5,174.8,74.8,175.3,75.2,175.3z"/>
</g>
<g>
	<path class="st1" d="M109.8,194.7h2.2c0.2,0,0.4-0.5,0.3-1l-1-9.3c-0.1-1.7-0.3-0.4-0.4,0l-1.4,9.3
		C109.4,194.3,109.6,194.7,109.8,194.7z"/>
</g>
<g>
	<path class="st1" d="M104.7,194.4h2.8c0.3,0,0.5-0.5,0.5-1.1l-1.3-10.4c-0.2-1.9-0.5-0.5-0.5,0l-1.9,10.4
		C104.1,193.8,104.3,194.4,104.7,194.4z"/>
</g>
<g>
	<path class="st1" d="M99.4,186.3h2.8c0.3,0,0.5-0.5,0.5-1l-1.3-9.3c-0.2-1.7-0.5-0.4-0.5,0l-1.9,9.3
		C98.8,185.8,99.1,186.3,99.4,186.3z"/>
</g>
<g>
	<path class="st1" d="M107.8,191.9h2.8c0.3,0,0.5-0.4,0.5-0.8l-1.3-8c-0.2-1.5-0.5-0.4-0.5,0l-1.9,8
		C107.3,191.5,107.5,191.9,107.8,191.9z"/>
</g>
<g>
	<path class="st1" d="M161.5,236.6h2.7c0.3,0,0.5-0.4,0.4-0.8l-1.3-7.6c-0.2-1.4-0.4-0.4-0.5,0l-1.8,7.6
		C161,236.2,161.2,236.6,161.5,236.6z"/>
</g>
<g>
	<path class="st1" d="M97.1,185.6h2.4c0.3,0,0.5-0.5,0.4-1l-1.1-9.3c-0.2-1.7-0.4-0.4-0.4,0l-1.6,9.3
		C96.6,185.1,96.8,185.6,97.1,185.6z"/>
</g>
<g>
	<path class="st1" d="M102,188.9h3.6c0.4,0,0.7-0.5,0.6-1l-1.7-9.3c-0.2-1.7-0.6-0.4-0.7,0l-2.4,9.3
		C101.3,188.4,101.6,188.9,102,188.9z"/>
</g>
<g>
	<path class="st1" d="M87.5,178h3.1c0.3,0,0.6-0.4,0.5-0.8l-1.5-8c-0.2-1.5-0.5-0.4-0.6,0l-2.1,8C86.9,177.6,87.1,178,87.5,178z"/>
</g>
<g>
	<path class="st1" d="M91.9,180.1H94c0.2,0,0.4-0.5,0.3-1l-0.8-5.9c-0.1-1.7-0.3-0.4-0.4,0l-1.6,5.9
		C91.5,179.6,91.6,180.1,91.9,180.1z"/>
</g>
</svg>
