<?xml version="1.0" encoding="utf-8"?><svg version="1.1" id="Layer_1" xmlns="http://www.w3.org/2000/svg" xmlns:xlink="http://www.w3.org/1999/xlink" x="0px" y="0px" viewBox="0 0 86.2 86.2" style="enable-background:new 0 0 86.2 86.2;" xml:space="preserve"><style type="text/css">.st0{fill:#05396B;}</style><g><path class="st0" d="M43.1,3.1c-22.1,0-40,17.9-40,40s17.9,40,40,40s40-17.9,40-40S65.2,3.1,43.1,3.1z M43.1,75.6c-17.9,0-32.5-14.6-32.5-32.5s14.6-32.5,32.5-32.5s32.5,14.6,32.5,32.5S61,75.6,43.1,75.6z"/><path class="st0" d="M56.8,33.1c-1.1,0-2,0.5-2.8,1.2l0,0l-11,12l-11-12l0,0c-0.6-0.7-1.7-1.2-2.8-1.2c-2,0-3.7,1.7-3.7,3.7c0,1,0.4,1.9,1,2.5l0,0l13.7,15c0.7,0.7,1.8,1.2,2.8,1.2c1,0,2-0.5,2.8-1.2l13.7-15l0,0c0.6-0.6,1-1.6,1-2.5C60.5,34.7,58.9,33.1,56.8,33.1L56.8,33.1z"/></g></svg>