<?xml version="1.0" encoding="utf-8"?>
<!-- Generator: Adobe Illustrator 27.0.0, SVG Export Plug-In . SVG Version: 6.00 Build 0)  -->
<svg version="1.1" id="master-artboard" xmlns="http://www.w3.org/2000/svg" xmlns:xlink="http://www.w3.org/1999/xlink" x="0px"
	 y="0px" viewBox="0 0 720 504" style="enable-background:new 0 0 720 504;" xml:space="preserve">
<style type="text/css">
	.st0{fill:#05396B;}
	.st1{fill:none;}
	.st2{font-family:'Ubuntu-Regular';}
	.st3{font-size:15.2073px;}
</style>
<path class="st0" d="M251.1,97.8c1-4,2.7-6.4,5-7.4s4.6-1,7.1,0c1.2,0.5,2.2,1.2,2.9,2.1l0.3,0.4c0.8,1,1.3,1.7,1.4,1.9
	c0.1,0.3,0.2,0.5,0.2,0.7c0.1,0,0.2,0.1,0.3,0.3l0.3,0.7c0.4,0.9,0.7,1.5,0.8,1.8l4.8,11.3l-11.2,4.7l-4.6-10.8l-0.2-0.4
	c-0.8-1.8-1.6-2.5-2.6-2c-1.1,0.5-1.3,1.7-0.4,3.6l0.6,1.3l4.1,9.7l-5.1,2.2l-5.1,2.1l-4.2-9.9l-0.5-1.2c-0.7-1.6-1.6-2.3-2.7-2.2
	c-1.1,0.5-1.3,1.7-0.6,3.4l0.5,1.1l4.3,10.2l-5.9,2.5l-5.9,2.5l-4.7-11.1l-4.6-11l5-2.1l5.1-2.1l0.3,0.4c1.1,1.4,2,2.5,2.6,3.3
	c0.2-1.7,0.7-3.3,1.3-4.7c0.7-1.4,1.5-2.3,2.6-2.8c0.3-0.1,0.7-0.3,1-0.4c1.1-0.4,2.3-0.5,3.8-0.1C248.5,96.2,249.8,96.9,251.1,97.8
	z M302.2,90.9c0,0.1,0,0.2,0,0.2v0.2c0.5,2.2,0.5,4.2-0.1,6.1l0,0c-0.8,2.3-2.3,4.4-4.4,6c-2.1,1.7-4.3,2.8-6.6,3.3
	c-2.3,0.6-4.3,0.8-5.9,0.7s-3.2-0.4-4.7-0.9c-1.5-0.6-2.6-1.1-3.5-1.8c-1.9-1.5-3.3-3.9-4.1-7.4c0-0.1,0-0.2,0-0.3l-0.1-0.3
	c0-0.1-0.1-0.1-0.1-0.1v-0.2l0,0c-0.3-2.3-0.2-3.9,0.3-4.8c0-0.1,0-0.3,0.2-0.6l0,0l0.2-0.5c1-2.3,2.5-4.1,4.3-5.3l0.6-0.4
	c0.8-0.6,1.9-1.2,3.4-1.8l0.6-0.2c0.1,0,0.3-0.1,0.5-0.2c0.3-0.1,0.5-0.2,0.6-0.2l0.8-0.2h0.1c0.1,0,0.1,0,0.2,0l0,0
	c0.1,0,0.2,0,0.4,0c0-0.1,0.1-0.1,0.2-0.1c2.8-0.7,5.3-0.7,7.6,0l0.4,0.1C298,83,301,86,302.2,90.9 M290.1,94
	c-0.7-2.6-1.5-4.2-2.4-5c-0.4-0.3-0.8-0.4-1.2-0.3c-0.4,0.1-0.7,0.4-0.9,1c-0.2,0.5-0.3,1.4-0.2,2.4c0.1,1.1,0.2,2,0.4,2.7
	c0.2,0.8,0.4,1.5,0.6,2c0.2,0.6,0.5,1.1,0.8,1.7s0.6,1.1,1.1,1.4c0.4,0.4,0.8,0.5,1.2,0.4C290.8,100,291,97.9,290.1,94z M335,86.5
	c0,0.1,0,0.2,0,0.2v0.2c0.2,2.2,0,4.2-0.7,6.1l0,0c-1.1,2.2-2.8,4.1-5,5.5c-2.3,1.4-4.6,2.3-6.9,2.6s-4.3,0.3-5.9,0.1
	c-1.6-0.3-3.1-0.7-4.5-1.4s-2.5-1.4-3.2-2.2c-1.8-1.7-2.9-4.3-3.3-7.8c0-0.1,0-0.2,0-0.3v-0.3c0-0.1-0.1-0.1-0.1-0.2v-0.2l0,0
	c0-2.4,0.2-3.9,0.9-4.8c0-0.1,0.1-0.3,0.2-0.5l0,0l0.2-0.5c1.3-2.2,2.9-3.8,4.8-4.8l0.7-0.3c0.8-0.5,2-1,3.6-1.4l0.6-0.2
	c0.1,0,0.3-0.1,0.6-0.1c0.3,0,0.5-0.1,0.6-0.2l0.9-0.1h0.1c0.1,0,0.1,0,0.2,0l0,0c0.1,0,0.2,0,0.4,0c0-0.1,0.1-0.1,0.3-0.1
	c2.9-0.4,5.4-0.1,7.5,0.8l0.4,0.1C331.7,78.2,334.3,81.5,335,86.5 M322.6,88.2c-0.4-2.6-1-4.4-1.8-5.2c-0.3-0.3-0.7-0.5-1.1-0.4
	s-0.7,0.3-1,0.9c-0.3,0.5-0.4,1.3-0.5,2.4s0,2,0.1,2.8s0.2,1.5,0.4,2.1c0.1,0.6,0.3,1.2,0.6,1.8c0.2,0.6,0.5,1.1,0.9,1.5
	s0.7,0.6,1.1,0.5C322.7,94.3,323.1,92.2,322.6,88.2z M354.5,74.1v-2l-0.1-5.3l6-0.2l6-0.2c0,0,0.3,10.4,0.9,31.3L357.1,98
	c-0.3-0.5-0.5-0.9-0.7-1.2l-0.8-1.4c-1.2,1.2-2.4,2-3.5,2.6c-1.1,0.5-2.5,0.8-4.1,0.9c-2.7,0.1-4.9-0.9-6.8-3s-2.9-4.7-2.9-8
	c-0.1-2.2,0.1-4.2,0.6-6.2c0.5-1.9,1.3-3.6,2.4-5.3c1.1-1.7,2.7-2.6,4.6-2.9h0.3l1.7-0.2c1.6,0,3.5,0.6,5.6,2l0.4,0.2l0,0
	c0.3,0.2,0.5,0.3,0.6,0.4l0.6-0.3c-0.3-0.7-0.4-1.1-0.4-1.4L354.5,74.1 M350.6,86.5v0.7v0.5c0,0.7,0.2,1.5,0.5,2.3l0,0
	c0.1,0.4,0.4,0.9,0.8,1.5c0.5,0.6,0.9,0.9,1.4,0.9c0.2,0,0.3,0,0.4-0.1c1.4-0.6,2-2.5,1.9-5.7c-0.1-2.2-0.5-3.9-1.2-5.2
	c-0.5-0.8-1-1.2-1.5-1.2s-1,0.4-1.4,1.2C350.9,83,350.5,84.7,350.6,86.5z M382.3,81.1c-0.5,3.7-0.9,7.6-1.3,11.6l-0.5,6l-1.5-0.1
	l-0.5-0.1l-7.1-0.6c-0.4,0-0.7-0.1-0.7,0c0,0,0-0.1,0.1-0.3v-0.1v-0.1c0-1,0.1-2.1,0.2-3.5l2.1-22.3l0.1-1l0.1-1l0.1-1.9
	c0-0.1,0.1-0.3,0.3-0.4l2.7,0.2l1.6,0.1c3.7,0.3,6.4,0.6,8,0.9s2.8,0.4,3.5,0.5c0.2,2.3,0.5,5.4,0.9,9.2l0.8,7.3l0.7,0.1l3.7-12.8
	c0.1-0.2,0.2-0.8,0.4-1.7c0.2-0.9,0.4-1.5,0.5-1.6h0.1l13,1.1l0.8,0.1l2.2,0.2c0.1,0.1,0.2,0.3,0.1,0.7l-0.5,7.6
	c-0.4,6.3-0.7,11.1-1,14.6c-0.2,2.7-0.5,5.2-0.8,7.5c-0.1,0.2-0.3,0.2-0.8,0.2h-0.9c-0.7,0-1.3-0.1-1.6-0.1l-1-0.1
	c-1.3-0.1-3.2-0.3-5.7-0.5c-0.4-0.5-0.5-2.3-0.2-5.4l0.6-6.3l0.1-1.6c0.1-1.4,0.2-2.5,0.3-3.2l-0.8-0.2c-0.6,1.6-1.8,5.1-3.5,10.5
	l-0.3,0.8c-0.1,0.4-0.4,1.1-0.7,2.2c-0.3,1-0.6,1.8-0.7,2.4c-0.2,0.2-0.9,0.2-2.1,0.1h-0.3l-2.2-0.3l-1.2-0.1l-0.9-0.1l-1.6-0.1
	h-0.5c-0.6-0.1-0.9-0.2-1-0.5l0,0l-1.1-8.1c0-0.2-0.1-0.7-0.2-1.3c-0.1-0.7-0.2-1.3-0.2-1.7l-0.9-6.6L382.3,81.1z M444.5,96.3
	c-0.1,0.1-0.1,0.2-0.1,0.2v0.2c-0.5,2.1-1.4,4-2.8,5.5l0,0c-1.8,1.7-4,2.9-6.6,3.4c-2.6,0.6-5.1,0.6-7.4,0.1s-4.2-1.2-5.6-1.9
	c-1.4-0.8-2.7-1.8-3.8-2.9c-1.1-1.2-1.9-2.2-2.3-3.1c-1.1-2.2-1.2-5-0.5-8.4c0-0.1,0.1-0.2,0.1-0.3l0.1-0.3c0-0.1,0-0.1,0-0.2
	l0.1-0.2l0,0c0.8-2.2,1.6-3.6,2.5-4.2c0-0.1,0.2-0.3,0.4-0.4l0,0l0.4-0.4c2-1.6,4-2.6,6.2-2.9l0.7-0.1c0.9-0.2,2.2-0.3,3.8-0.1
	l0.6,0.1c0.1,0,0.3,0,0.6,0.1c0.3,0.1,0.5,0.1,0.6,0.1l0.8,0.2h0.1c0.1,0,0.1,0,0.2,0.1l0,0c0.1,0.1,0.2,0.1,0.3,0.1
	c0.1,0,0.2,0,0.3,0c2.8,0.6,5.1,1.7,6.8,3.3l0.4,0.3C444.3,87.4,445.6,91.4,444.5,96.3 M432.3,93.7c0.5-2.6,0.6-4.4,0.1-5.5
	c-0.2-0.4-0.5-0.7-0.9-0.8c-0.4-0.1-0.8,0.1-1.2,0.5c-0.4,0.4-0.8,1.1-1.3,2.1c-0.4,1-0.7,1.8-0.9,2.6c-0.2,0.8-0.3,1.5-0.3,2.1
	c-0.1,0.6-0.1,1.2-0.1,1.9s0.1,1.2,0.3,1.7c0.2,0.5,0.5,0.8,0.9,0.9C430.3,99.4,431.4,97.6,432.3,93.7z M455.7,85.6l1.6-4.9l5.6,1.8
	l5.6,1.8l-1.6,5L455.7,85.6 M440.7,119.2c-0.3-0.4-0.3-0.7-0.2-1v-0.1c0.1-0.1,0.1-0.2,0.1-0.3l0.1-0.4l0.6-1.8l1.4-4.3l0.6,0.2
	c1.6,0.5,2.7,0.3,3.5-0.7c0.4-0.5,0.7-1.1,0.9-1.9l0.1-0.3l0.8-2.4l6.1-18.8l5.6,1.8l5.6,1.8c-2.6,8.2-5.3,16.5-8.1,24.8v0.1
	c0,0.3-0.1,0.5-0.2,0.7c-0.3,1.1-0.9,2.1-1.7,3.1c-0.8,1-1.6,1.6-2.5,1.9l0,0c-2,0.5-4.6,0.3-7.7-0.8l-2-0.7h-0.1h-0.1l-0.3-0.1
	c-0.1,0-0.1-0.1-0.2-0.1l-0.3-0.1c-0.2,0-0.4,0-0.7-0.1c-0.2-0.1-0.5-0.2-0.8-0.3h-0.1C441.1,119.3,440.9,119.2,440.7,119.2
	 M442.9,111.3h-0.1l0.2-0.1L442.9,111.3z M493.4,115.7c-0.1,0.1-0.1,0.2-0.1,0.2l-0.1,0.1c-1,2-2.2,3.6-3.9,4.8l0,0
	c-2.1,1.3-4.5,2-7.2,2s-5.1-0.5-7.2-1.5s-3.8-2-5.1-3.1c-1.2-1.1-2.3-2.3-3.1-3.6c-0.8-1.4-1.4-2.5-1.6-3.6
	c-0.6-2.4-0.2-5.2,1.3-8.3c0.1-0.1,0.1-0.2,0.2-0.3l0.1-0.3c0-0.1,0-0.1,0-0.2l0.1-0.2l0,0c1.2-2,2.3-3.2,3.3-3.6
	c0.1-0.1,0.2-0.2,0.5-0.3l0,0l0.5-0.3c2.3-1.2,4.5-1.7,6.6-1.5l0.7,0.1c1,0,2.2,0.2,3.8,0.7l0.6,0.2c0.1,0,0.3,0.1,0.5,0.2
	c0.3,0.1,0.5,0.2,0.6,0.2l0.8,0.4h0.1c0.1,0,0.1,0.1,0.2,0.1l0,0c0.1,0.1,0.2,0.1,0.3,0.2c0.1,0,0.2,0,0.3,0c2.6,1.2,4.6,2.8,6,4.7
	l0.3,0.3C495,107,495.5,111.1,493.4,115.7 M482.1,110.7c1.1-2.4,1.5-4.2,1.2-5.4c-0.1-0.5-0.3-0.8-0.7-1c-0.4-0.2-0.8-0.1-1.3,0.2
	s-1,0.9-1.7,1.8c-0.6,0.9-1.1,1.7-1.4,2.4s-0.6,1.4-0.8,1.9c-0.2,0.6-0.3,1.2-0.5,1.8c-0.1,0.6-0.2,1.2,0,1.8c0.1,0.5,0.3,0.9,0.7,1
	C478.9,115.8,480.4,114.3,482.1,110.7z"/>
<rect x="247" y="130.4" class="st1" width="226.1" height="24"/>
<text transform="matrix(1 0 0 1 271.0024 153.4065)" class="st0 st2 st3">Music that fits your mood</text>
</svg>
