<?xml version="1.0" encoding="utf-8"?><svg version="1.1" id="master-artboard" xmlns="http://www.w3.org/2000/svg" xmlns:xlink="http://www.w3.org/1999/xlink" x="0px" y="0px" viewBox="0 0 720 504" style="enable-background:new 0 0 720 504;" xml:space="preserve"><style type="text/css">.st0{fill:#2E1059;}.st1{fill:#1A5792;}.st2{fill:#1A5692;}.st3{fill:#591B7A;}.st4{fill:#05396B;}</style><path class="st0" d="M167.6,367.6h12.7v68.2h-12.7V367.6z"/><g transform="matrix(1, 0, 0, 1, 0, 0)"><path class="st1" d="M231.8,334.7c-1.6-7.1-9.2-12.7-16.2-11c6.8-5.9,14.1-12.6,15.3-21.6c0.7-5.6-1.1-11.4-4-16.3c-11.6-19.8-38.8-26.6-60.5-19.2c-9.1,3.1-17.9,8.8-22.1,17.5s-2.3,20.7,5.8,25.8c-12.9-1.4-25.2,9.1-28,21.7s3,26.2,12.8,34.7c6.4,5.6,15.4,9.3,23.4,6.6l0.3-3.9c-1,8,8.1,13.7,16.1,14.6c8.9,1,18.2-1.4,25.5-6.5c3.2-2.2,6.3-5.2,7.2-9s-0.8-8.5-4.5-9.7c7.2,0.8,14.9-0.4,20.8-4.6C229.6,349.4,233.3,341.8,231.8,334.7z"/></g><path class="st2" d="M50.6,448.5c-1-6.2-1.9-12.5-0.6-18.7s5.1-12.1,10.9-14.3s13.6,0.4,15.6,6.3c1.4-5.7,5.4-10.7,10.6-13.2c5.2-2.6,11.6-2.7,17-0.4c5.9,2.6,10.6,9.6,8,15.6c9.3-4.4,21.2-2.7,28.8,4.2c7.6,6.9,10.5,18.5,7.1,28.2c-3.5,9.7-13.1,16.8-23.4,17.3"/><path class="st2" d="M308.5,454.6c-4.8-8.4-3.9-20.4,3.7-26.3c7.6-6,21.3-2.2,23.1,7.3c0.9-15.2,14-28.7,29.2-30c2.6-0.2,5.4-0.1,7.8,1c4.2,1.9,6.6,6.6,7.1,11.2s-0.5,9.2-1.6,13.7c3.9-6.1,12.8-8.2,19.1-4.7s9.1,12.2,6,18.7c3.1-5.7,11.3-7.4,17-4.2s8.6,10.1,7.9,16.6c-0.6,6.5-4.3,12.3-9,16.8"/><path class="st2" d="M642.2,446.5c-3.1-3.2-5.5-7-7.1-11.2c-2.1-5.7-2.5-12.2,0.1-17.7s8.6-9.5,14.6-8.7s11,7.2,9.4,13c1.6-6.1,3.4-12.5,7.8-17.1s12.1-6.6,17.1-2.7c4.7,3.8,4.8,10.9,3.3,16.8c2.9-2.5,4.1-6.4,5.7-9.9c1.6-3.5,4.3-7.1,8.1-7.4c3.1-0.3,6,1.8,7.5,4.4s1.9,5.8,2,8.9c0.5,15.6-6.6,31.2-18.7,41.1"/><path class="st0" d="M301.5,375.7h4.3v79h-4.3V375.7z"/><path class="st1" d="M311.7,388.1c-9.1,1.7-13.8,3.5-22-0.7c-8.3-4.2-13.9-14.6-10-23c2.4-5.1,7.7-8.5,9.8-13.6c1.2-2.8,1.3-5.8,1.5-8.8c0.4-7.1,0.7-14.1,1.1-21.2c0.4-7.4,1.6-16.1,8.2-19.4c1.9-1,4.4-1.3,6,0c1,0.7,1.5,1.9,2,3c2.6,5.7,4,12,4.2,18.2c0.3,9-1.8,18.9,2.8,26.6c1.5,2.5,3.7,4.7,5.4,7.1c3.5,5.2,4.6,12,2.9,18S317.4,385.5,311.7,388.1"/><path class="st0" d="M369,367.3c-0.6,30.6-0.7,61.3-0.2,91.9c1.7,0.6,3.6-0.6,4.4-2.2s0.8-3.5,0.7-5.2c-0.7-29.5-1.4-59-2.1-88.5"/><path class="st1" d="M375,385.6c-5.7,0.5-11.3-2.8-14.8-7.4c-3.4-4.6-5-10.4-5.6-16.1c-1.7-14.6,2.2-29.7,10.7-41.7c1.8-2.6,4.5-5.3,7.6-5c3.4,0.4,5.4,4,6.5,7.3c4.2,11.7,6.1,24.2,5.5,36.6c-0.5,9.3-2.7,19.3-9.7,25.4"/><path class="st0" d="M37.3,352.4c1.6,25.1,1.3,50.4-0.7,75.5c-0.2,2.6-0.4,5.3,0.7,7.6c1.1,2.3,4,4,6.3,2.8c5.7-29.3-0.7-59.8,3.9-89.3"/><path class="st1" d="M55.3,369c-8.7,5.3-20.4,4.1-28.8-1.7c-8.4-5.8-13.4-15.5-15-25.6c-1.2-7.7-0.5-15.9,3.2-22.8c3.6-6.8,9.8-11.8,15.9-16.4c-2.3-5.9-2.4-13.1,1.7-18c4.1-4.8,12.8-5.5,16.4-0.3c3,4.3,1.4,10.2-0.3,15.2c7.8,2.5,13.7,9.2,16.9,16.7s4,15.8,4,24c0,6.2-0.5,12.6-3.1,18.2s-7.7,10.5-13.9,11.2"/><path class="st0" d="M541.1,351.7c0.1-0.8,0.2-1.5,0.3-2.3c-2.1,25.2-4.2,50.5-6.3,75.7c4.5-0.5,9.1-0.4,13.7,0c-2.8-23.5-4.3-47.2-4.4-70.9"/><path class="st1" d="M544.9,365.5c-6.7,4.8-15.5,6.6-23.5,4.7c-5.6-1.3-11.1-4.8-12.9-10.2s1.6-12.6,7.3-12.9c-6.2-0.8-12.2-3.9-15.4-9.2c-1.9-3.1-2.7-6.7-2.9-10.4c-0.5-12.9,8.9-25.6,21.5-28.8c12.5-3.2,26.9,3.3,32.7,14.8c-1-6.3,3.6-12.8,9.7-14.3c6.2-1.5,13.1,2,15.8,7.8c2.7,5.7,1.1,13.1-3.4,17.5c5.4,0.2,11.4,0.7,15.1,4.6c3.2,3.4,3.9,8.7,2.5,13.2s-4.5,8.2-7.9,11.4c-3.5,3.3-9.3,6-12.8,2.7c0.8,6.4-3.1,13.1-9.1,15.5s-13.5,0.2-17.3-5"/><path class="st0" d="M634.7,368.5c-1.8,22.9-1.7,46,0.2,69c0.1,1.3,0.6,3,2,3c1.3-0.1,1.7-1.8,1.7-3.1c-0.2-24.2-1.4-48.4-3.6-72.6"/><path class="st1" d="M640.8,380c-5.3,4-13.7,2.7-17.7-2.6c-1.5-2.1-2.4-4.6-2.9-7.1c-0.9-4.8-0.6-9.7,0.2-14.5c1.9-12,6.4-23.5,13.1-33.6c2.4,2.7,4,5.9,5.5,9.1c3.9,8.4,7,17.2,9.3,26.1c1.3,5.2,2.4,10.9,0.6,16c-1.8,5.1-7.4,9.2-12.5,7.5"/><g transform="matrix(1, 0, 0, 1, 0, 0)"><path class="st3" d="M156,339.7L156,339.7c-0.6,0.1-1.1,0.5-1.6,0.9s-1,0.9-1.2,1.5c-0.1,0.7,0.2,1.4,0.7,1.8s1.2,0.7,1.9,0.8c1.1,0.2,2.4,0,3.3-0.7s1.3-2.1,0.7-3.1C159,339.7,157.4,339.6,156,339.7z"/></g><path class="st3" d="M176.1,362.9c-0.2-0.2-0.4-0.3-0.7-0.3c-0.5-0.1-1,0.2-1.4,0.5c-1.1,0.8-1.6,2.5-1,3.8s2,2.1,3.4,1.8s2.5-1.5,2.6-2.9c0-0.9-0.3-1.7-0.9-2.3C177.5,363,176.8,362.8,176.1,362.9z"/><g transform="matrix(1, 0, 0, 1, 0, 0)"><path class="st3" d="M529,351.2c-0.9,0.1-1.8,0.5-2.5,1.2c-0.2,0.1-0.4,0.2-0.5,0.4c-0.9,0.8-1.7,1.9-1.4,3.1c0.3,1,1.2,1.6,2.2,1.9c1.7,0.5,3.7,0.1,5.1-1c0.5-0.4,0.9-0.8,1.1-1.4c0.4-1,0-2.2-0.8-3C531.4,351.5,530.2,351.1,529,351.2z"/></g><path class="st3" d="M549.3,331.6c-1.4,0-2.8,1.3-2.8,2.8c0,1.4,1.3,2.8,2.8,2.8c1.4,0,2.8-1.3,2.8-2.8C552.1,333,550.8,331.6,549.3,331.6z"/><path class="st3" d="M520.2,318c-0.8-0.6-2-0.7-3-0.3c-0.3,0.1-0.5,0.2-0.7,0.4c-0.5-0.3-1.2,0.1-1.6,0.5c-1.3,1.3-2.3,3.3-1.5,5c0.7,1.5,2.6,2.2,4.2,2.1c1.1,0,2.1-0.4,2.9-1.1c1.1-1,1.3-2.7,1.1-4.2C521.3,319.5,520.9,318.6,520.2,318z"/><path class="st3" d="M535.3,314.3l0.1,0.8c-0.2-0.4-0.9-0.7-1.3-0.4c-0.6,0.3-0.8,1.2-0.5,1.8c0.3,0.6,0.8,1.1,1.5,1.4c0.4,0.2,0.8,0.3,1.2,0.2c0.8-0.2,1.1-1.3,0.8-2C536.7,315.3,536,314.7,535.3,314.3z"/><path class="st3" d="M564.9,310.1c-0.4,0.1-0.8,0.3-1.1,0.6c-0.8,1-0.6,2.7,0.5,3.5s2.8,0.4,3.5-0.7c0.3-0.5,0.4-1.2,0.5-1.8c0-0.6,0-1.2-0.3-1.7C567.2,309,565.4,309.1,564.9,310.1z"/><path class="st3" d="M581.1,342.5c-0.3-0.9-1.4-1.2-2.3-1.3l0.2,1c-0.2-0.3-0.5-0.4-0.9-0.4c-0.4,0.1-0.8,0.5-1,0.9c-0.2,0.3-0.5,0.7-0.5,1.1c0,0.9,1.1,1.3,2,1.2c0.7-0.1,1.4-0.2,1.9-0.7C581,343.9,581.3,343.2,581.1,342.5z"/><path class="st3" d="M561.8,357.5c-0.5-0.3-1-0.4-1.6-0.5c-0.2-0.3-0.5-0.4-0.8-0.5c-0.6-0.1-1.3,0.1-1.8,0.5c-0.3,0.1-0.5,0.3-0.7,0.5c-0.1,0-0.2,0.1-0.3,0.1h0.1c-0.7,0.7-1.3,1.6-1.1,2.5s1,1.6,2,1.9c0.9,0.2,1.9,0.1,2.8-0.1c0.7-0.2,1.5-0.4,2-0.9c0.6-0.5,1-1.2,0.8-2C563,358.4,562.4,357.9,561.8,357.5z"/><path class="st3" d="M204.6,336.3c-0.7,0-1.3,0.2-1.8,0.6c-1,0.8-1.4,2.2-1,3.4s1.3,2.2,2.5,2.6c0.7,0.3,1.4,0.4,2.1,0.1c0.7-0.3,1.2-1,1.6-1.8c0.7-1.5,1-3.5-0.3-4.5C206.7,336.1,205.6,336.1,204.6,336.3z"/><path class="st3" d="M182.1,302.8h-0.7c-0.4-0.6-1.5-0.3-1.9,0.3c-0.9,1.1-1,2.7-0.3,3.9c0.7,1.2,2.2,1.8,3.6,1.4s2.3-1.8,2.2-3.1C184.8,303.9,183.5,302.7,182.1,302.8z"/><path class="st3" d="M213.8,293.4c-1-0.8-2.4-0.9-3.5-0.5c-0.5-0.1-1,0-1.5,0.3c-1.1,0.8-1.4,2.5-0.8,3.8c0.6,1.2,2,2,3.4,2.2c1,0.1,2,0,2.7-0.6c0.4-0.3,0.6-0.8,0.8-1.2C215.4,296,215,294.3,213.8,293.4z"/><path class="st3" d="M160.4,285.1c-1.2-0.8-3-0.2-3.6,1.1l0,0c-0.4,0-0.7,0.2-1,0.4c-0.8,0.7-1,1.9-0.6,2.9c0.3,1,1.2,1.7,2.1,2.2c1.3,0.6,3.1,0.5,4-0.6c0.8-1,0.8-2.4,0.5-3.7C161.6,286.4,161.2,285.6,160.4,285.1z"/><path class="st3" d="M178.1,333.2l-0.1,0.1c-0.8-0.7-2.3-0.2-2.7,0.8s0.2,2.2,1.2,2.7c1,0.4,2.2,0.1,3-0.6c0.4-0.4,0.6-0.8,0.7-1.3C180.3,333.9,179.1,332.9,178.1,333.2z"/><path class="st3" d="M138.8,336.7c-0.7-1-2.4-1.1-3.2-0.2l0.3-0.8c-1.2,0-2.2,1.1-2.6,2.3c-0.5,1.3-0.4,2.8,0.3,4s2.3,1.8,3.6,1.3c0.9-0.3,1.5-1.1,1.8-2s0.3-1.8,0.3-2.8C139.2,337.9,139.1,337.2,138.8,336.7z"/><g transform="matrix(1, 0, 0, 1, 0, 0)"><path class="st3" d="M24.7,345.2c-1-0.5-2.4-0.1-3,0.9s-0.4,2.3,0.5,3.1c0.5,0.4,1.3,0.6,1.9,0.7c0.7,0.1,1.4,0,1.9-0.3c0.9-0.5,1.3-1.5,1.4-2.5c0-0.9-0.2-1.8-0.9-2.4s-1.8-0.7-2.4-0.1"/></g><path class="st3" d="M42.2,333.5c-0.8-0.5-2,0-2.3,0.8c-0.3,0.9,0.2,2,1.1,2.3s1.9,0.1,2.6-0.5c0.3-0.3,0.5-0.6,0.6-1c0.3-1.2-0.8-2.6-2.1-2.5"/><path class="st3" d="M50.8,318c-0.1-0.4-0.6-0.6-1-0.6s-0.8,0.3-1.1,0.6c-1.1,1.2-0.7,3.2,0.5,4.3c1.1,1,2.7,1.3,4.1,0.9s2.5-1.6,3-3c0.4-1.1,0.3-2.4-0.5-3.4c-1-1.2-2.8-1.5-4.3-0.9s-2.6,1.6-3.7,2.8"/><path class="st3" d="M26.8,319.4c-0.6-0.2-1.3,0.4-1.5,1.1c-0.3,1.3,0.8,2.7,2.1,2.8c1.3,0,2.5-1.4,2.2-2.7c-0.3-1.3-1.9-2.1-3.1-1.6"/><path class="st3" d="M53,355.2c-0.4-0.8-1.3-1.3-2.2-1.1s-1.5,1-1.5,1.9s0.6,1.6,1.3,2.1c0.4,0.3,0.9,0.6,1.5,0.7c1,0.2,2.1-0.5,2.5-1.5s0.1-2.2-0.7-2.9c-0.8-0.7-1.9-1-2.9-0.7"/><path class="st3" d="M39.4,292.2c-1,0.2-1.8,1.2-1.6,2.2c0.1,1,1.1,1.8,2.1,1.8s2-0.8,2.2-1.7c0.2-0.7-0.1-1.6-0.7-2.1c-0.6-0.4-1.6-0.4-2.1,0.3"/><g transform="matrix(1, 0, 0, 1, 0, 0)"><path class="st4" d="M722,505.3c0-30.7,0-61.5,0-92.2c-8.2,6.8-24.8,18.5-48.4,22c-24.3,3.5-43.8-3.5-49.8-8c-2.5-1.9-5.1-4.2-5.1-4.2c-3.6-3.5-4.8-6.3-9.7-10c-16.2-12.4-38.6-7.3-57.3,0.1c-39.2,15.4-76.5,38.3-117.9,44.8c-19.9,3.1-40.2,2.2-60.3,1c-34.5-2-69-5.2-103.1-11.3c-39.8-7.1-79.8-18.4-120.1-14.3c-36.5,3.8-75.5,19.6-107.8,0.9C28,425.7,14,410.1-2,415v90.3H722z"/></g></svg>