<?xml version="1.0" encoding="utf-8"?><svg xmlns="http://www.w3.org/2000/svg" xmlns:xlink="http://www.w3.org/1999/xlink" version="1.1" id="master-artboard" x="0px" y="0px" viewBox="0 0 720 504" xml:space="preserve"><style type="text/css">.st7{fill:#389583;}</style><g transform="matrix(1, 0, 0, 1, 0, 0)"><g><path class="st7" d="M664.5,305.9c-31,20.7-47.8,62.1-80.9,78.6c-2.7,1.4-5.6,2.6-8.6,2.2c-2.9-0.4-5.4-2.2-7.8-4    c-11.4-8.6-21.7-18.9-34.3-25c-20.6-10-46.1-7-64.3,7.6c-6.6,5.4-12.3,12.1-19.1,17.2c-16.6,12.4-38,13.7-58.1,12.1    c-20-1.6-40.2-5.8-60.1-3c-36.2,5.1-68.1,35.7-77.8,73.7c-5.7-2-11.8-3.4-17.1-6.5c-23.5-13.7-23.5-53.8-46.3-69.1    c-23.9-16.1-56.7,5.5-82.8-6.2c-13.3-5.9-22.2-19.5-29.4-33c-3.7-7-7.2-14.4-13.3-19.1c-0.6-0.4-0.7-0.5-1.7-1.1    c0,0-0.2-0.1-1.5-0.9c-1.6-1-4.1-4.6-6.3-7.2c-0.3-0.4-0.4-0.4-1.1-1.1c-0.7-0.7-2.3-2.5-3.2-3.1c-1.8-1.4-4.4-0.8-5.3-0.7    c-6.3,0.9-16.4-9.6-21.7-13.8c-4.8-3.9-12.7-8.6-25.8-10.3c0,70.3,0,140.6,0,210.8h724V293.8C702.3,290.2,681.6,294.5,664.5,305.9    z"/></g></g></svg>