<?xml version="1.0" encoding="utf-8"?>
<svg
	xmlns="http://www.w3.org/2000/svg"
	xmlns:xlink="http://www.w3.org/1999/xlink" version="1.1" id="master-artboard" x="0px" y="0px" viewBox="0 0 720 504" xml:space="preserve">
	<style type="text/css">        .st1{fill:#5CDB94;}        .st12{fill:none;stroke:#05396B;stroke-miterlimit:10;}    </style>
	<path class="st1" d="M-2-0.6h724v504H-2V-0.6z"/>
	<g transform="matrix(1.1230360247361049, 0, 0, 1.1230360247361049, -25.826900947027255, -24.00885794573506)">
		<g>
			<path class="st12" d="M523.8,182.1h-19"/>
			<path class="st12" d="M503.3,182.1h-2.1"/>
			<path class="st12" d="M499.7,182.1h-1"/>
			<path class="st12" d="M530.2,182.1h-2.1"/>
			<path class="st12" d="M526.6,182.1h-1"/>
			<path class="st12" d="M523.8,179.7h-21.6"/>
		</g>
		<g>
			<path class="st12" d="M483.4,56.7h-19"/>
			<path class="st12" d="M462.8,56.7h-2.1"/>
			<path class="st12" d="M459.2,56.7h-1"/>
			<path class="st12" d="M489.7,56.7h-2.1"/>
			<path class="st12" d="M486.1,56.7h-1"/>
			<path class="st12" d="M483.4,54.3h-21.6"/>
		</g>
		<g>
			<path class="st12" d="M508,171.1l3.2,3.1"/>
			<path class="st12" d="M511.2,171.1l-3.2,3.1"/>
		</g>
		<g>
			<path class="st12" d="M450.4,54.3l3.2,3.1"/>
			<path class="st12" d="M453.7,54.3l-3.2,3.1"/>
		</g>
		<g>
			<path class="st12" d="M612,178.1l-3.2-3.1"/>
			<path class="st12" d="M608.8,178.1l3.2-3.1"/>
		</g>
		<g>
			<path class="st12" d="M168.9,83.8h-19"/>
			<path class="st12" d="M175.3,83.8h-2.1"/>
			<path class="st12" d="M171.6,83.8h-1"/>
			<path class="st12" d="M168.9,81.4h-21.6"/>
		</g>
		<g>
			<path class="st12" d="M136,81.4l3.2,3.1"/>
			<path class="st12" d="M139.2,81.4l-3.2,3.1"/>
		</g>
		<path class="st12" d="M392.3,49.4h-19"/>
		<path class="st12" d="M398.6,49.4h-2.1"/>
		<path class="st12" d="M395,49.4h-1"/>
		<path class="st12" d="M392.3,47h-21.6"/>
		<g>
			<path class="st12" d="M278,36.2l3.2,3.1"/>
			<path class="st12" d="M281.2,36.2l-3.2,3.1"/>
		</g>
		<path class="st12" d="M170.6,59.3c0,0.9-0.7,1.6-1.6,1.6l0,0c-0.9,0-1.6-0.7-1.6-1.6l0,0c0-0.9,0.7-1.6,1.6-1.6l0,0   C169.8,57.8,170.6,58.4,170.6,59.3L170.6,59.3z"/>
		<path class="st12" d="M182.9,205.3c0,0.9-0.7,1.6-1.6,1.6l0,0c-0.9,0-1.6-0.7-1.6-1.6l0,0c0-0.9,0.7-1.6,1.6-1.6l0,0   C182.2,203.8,182.9,204.5,182.9,205.3L182.9,205.3z"/>
		<g>
			<path class="st12" d="M35.7,54.7l3.2,3.1"/>
			<path class="st12" d="M39,54.7l-3.2,3.1"/>
		</g>
		<g>
			<path class="st12" d="M163.4,203.8l3.2,3.1"/>
			<path class="st12" d="M166.7,203.8l-3.2,3.1"/>
		</g>
		<path class="st12" d="M39,65.2c0,0.9-0.7,1.6-1.6,1.6l0,0c-0.9,0-1.6-0.7-1.6-1.6l0,0c0-0.9,0.7-1.6,1.6-1.6l0,0   C38.2,63.7,39,64.4,39,65.2L39,65.2z"/>
		<g>
			<path class="st12" d="M103.9,82.7v2"/>
			<path class="st12" d="M103.9,86.1v1"/>
		</g>
		<path class="st12" d="M96.2,78c0,0.9-0.7,1.6-1.6,1.6S93,78.9,93,78s0.7-1.6,1.6-1.6S96.2,77.1,96.2,78z"/>
		<g>
			<path class="st12" d="M590.2,124h-19"/>
			<path class="st12" d="M596.5,124h-2.1"/>
			<path class="st12" d="M592.9,124h-1"/>
			<path class="st12" d="M590.2,121.6h-21.6"/>
		</g>
		<g>
			<path class="st12" d="M127.7,24.4h-19"/>
			<path class="st12" d="M134,24.4h-2.1"/>
			<path class="st12" d="M130.4,24.4h-1"/>
			<g>
				<path class="st12" d="M559.6,36l3.2,3.1"/>
				<path class="st12" d="M562.9,36l-3.2,3.1"/>
			</g>
			<path class="st12" d="M562.9,46.6c0,0.9-0.7,1.6-1.6,1.6l0,0c-0.9,0-1.6-0.7-1.6-1.6l0,0c0-0.9,0.7-1.6,1.6-1.6l0,0    C562.2,45,562.9,45.7,562.9,46.6L562.9,46.6z"/>
			<path class="st12" d="M657.8,67.5h-19"/>
			<path class="st12" d="M664.1,67.5H662"/>
			<path class="st12" d="M660.5,67.5h-1"/>
			<path class="st12" d="M45,120.7H23.4"/>
		</g>
		<g>
			<path class="st12" d="M557.2,121.6l3.2,3.1"/>
			<path class="st12" d="M560.4,121.6l-3.2,3.1"/>
		</g>
		<path class="st12" d="M591.8,99.5c0,0.9-0.7,1.6-1.6,1.6l0,0c-0.9,0-1.6-0.7-1.6-1.6l0,0c0-0.9,0.7-1.6,1.6-1.6l0,0   C591.1,98,591.8,98.6,591.8,99.5L591.8,99.5z"/>
		<g>
			<path class="st12" d="M525.1,122.9v2"/>
			<path class="st12" d="M525.1,126.3v1"/>
		</g>
		<path class="st12" d="M517.4,118.2c0,0.9-0.7,1.6-1.6,1.6l0,0c-0.9,0-1.6-0.7-1.6-1.6l0,0c0-0.9,0.7-1.6,1.6-1.6l0,0   C516.7,116.6,517.4,117.3,517.4,118.2L517.4,118.2z"/>
	</g>
	<g>
		<g>
			<g>
				<g>
					<defs>
						<polygon id="SVGID_1_" points="324,126 325,126 324,127      "/>
					</defs>
					<clipPath id="SVGID_2_">
						<use xlink:href="#SVGID_1_" style="overflow:visible;"/>
					</clipPath>
				</g>
			</g>
		</g>
	</g>
</svg>