<?xml version="1.0" encoding="utf-8"?><svg version="1.1" id="master-artboard" xmlns="http://www.w3.org/2000/svg" xmlns:xlink="http://www.w3.org/1999/xlink" x="0px" y="0px" viewBox="0 0 720 504" xml:space="preserve"><style type="text/css">.st0{fill:#52B980;}.st1{fill:#053A6B;}</style><g transform="matrix(1, 0, 0, 1, 0, 0)"><path class="st0" d="M707.7,335.2c-4.6-7.6-14-10.4-22.5-12.8c-21.6-6.1-42.8-13.4-63.7-21.7c-11.9-4.8-23.9-10.1-33.1-18.9c-12.7-12.3-18.7-30-30.4-43.3c-21.3-24.1-58.8-28.7-89.2-18.1c-30.4,10.7-54.7,33.8-75.4,58.5c-13,15.5-25,32-40.2,45.2s-34.6,23.2-54.8,22.5c-25.5-0.8-47.2-17.9-70.8-27.7c-54.9-22.8-124.5-1.4-157,48.3l-10.3,25.5c-0.8,18.4,10.5,35.7,25.3,46.6s32.9,16.4,50.7,21c168.9,44.3,348,32,519.5-0.9c12.1-2.3,24.9-5.1,33.6-13.9c8.3-8.3,11.2-20.5,13.3-32c3.6-19.3,6.1-38.8,7.6-58.3C711,348.4,711.3,341.1,707.7,335.2z"/></g><g transform="matrix(1, 0, 0, 1, 0, 0)"><path class="st1" d="M496.9,183c-1.6,6.9-3,13.6-5.5,20.3c0.7,0.5,1.6,0.4,2.5,0.3c0.5-0.1,1-0.2,1.5-0.3c0.2,4.3,0.3,8.7,0.5,13c0,0.2,0,0.3,0.1,0.4c0.1,0.1,0.3,0.1,0.4,0c0.3-0.1,0.7-0.2,1-0.2c0.1,0,0.3-0.1,0.3-0.2c0.1-0.1,0.1-0.3,0.1-0.5c-0.5-4.3-0.8-8.5-0.9-12.8c1-0.2,1.9-0.3,2.9-0.5c0.2,0,0.5-0.1,0.6-0.3s0.1-0.4,0.1-0.5C500,195.4,498.7,189.1,496.9,183z"/></g><path class="st1" d="M482.5,186.7c-1.4-6-2.7-12-3.7-18c-3.9,12.2-9.2,23-14.6,34.6c3.5,0,7.1-0.1,10.6-0.3c-0.1,5.8-0.2,11.6-0.4,17.4c1.1-0.3,2.2-0.6,3.3-0.9c0.6-5.6,0.9-11.2,0.8-16.8c3.1-0.3,6.1-0.6,9.2-1.1C485.1,197,483.7,191.9,482.5,186.7z"/><path class="st1" d="M426.1,231c-0.5-2.1-1-4.3-1.3-6.4c-1.4,4.3-3.3,8.2-5.2,12.4c1.3,0,2.5,0,3.8-0.1c0,2.1-0.1,9.8-0.1,11.9c0.4-0.1,0.8-0.2,1.2-0.3c0.2-2,0.3-9.7,0.3-11.7c1.1-0.1,2.2-0.2,3.3-0.4C427,234.6,426.5,232.8,426.1,231z"/><path class="st1" d="M443.5,203.1l-0.9,1.1c-3.6,5.8-6.4,12.1-8.2,18.7l1.5-0.6c1.2,0.2,2.5,0.3,3.8,0.3c-0.4,4.3-0.8,8.7-1.3,13c-0.2,2.3-0.5,4.7-0.8,7c0.8,0,1.6-0.1,2.4-0.1c0.6-6.7,1.3-13.3,1.9-20c1.7-0.2,3.5-0.6,5.1-1.3c0.1-0.1,0.3-0.1,0.3-0.2c0.1-0.1,0-0.3,0-0.4C446.1,214.6,444.8,208.8,443.5,203.1z"/><path class="st1" d="M579.4,256.1c-0.9-1.7-1.4-3.5-1.9-5.3c-0.5-2.1-1-4.3-1.3-6.4c-1.4,4.3-3.3,8.2-5.2,12.4c1.3,0,2.5,0,3.8-0.1c0,2.1-0.1,9.8-0.1,11.9c0.4-0.1,0.8-0.2,1.2-0.3c0.2-2,0.3-9.7,0.3-11.7C577.2,256.4,578.3,256.2,579.4,256.1z"/><path class="st1" d="M571,229.6c-1.3-5.8-2.6-11.6-3.9-17.4l-0.9,1.1c-3.6,5.8-6.4,12.1-8.2,18.7l1.5-0.6c1.2,0.2,2.5,0.3,3.8,0.3c-0.4,4.3-0.8,8.7-1.3,13c-0.2,2.3-0.5,4.7-0.8,7c0.8,0,1.6-0.1,2.4-0.1c0.6-6.7,1.3-13.3,1.9-20c1.7-0.2,3.5-0.6,5.1-1.3c0.1-0.1,0.3-0.1,0.3-0.2C571.1,229.8,571.1,229.7,571,229.6z"/><path class="st1" d="M522.7,197.3c-1.6,3.8-3.4,7.5-5.4,11.1c1.1,0.3,2.2,0.6,3.2,0.9c-0.4,3.2-0.7,6.3-1.1,9.5v0.1h0.1c0.6,0,1.1,0,1.7,0c0.4-3.1,0.7-6.3,0.9-9.4c1.2,0.2,2.4,0.2,3.6,0c-1.9-3.9-2.8-8.3-2.8-12.6L522.7,197.3z"/><path class="st1" d="M550.3,197.9c-1.8,6-4.1,11.8-6.8,17.4c-0.1,0.3-0.2,0.5-0.1,0.8c0.1,0.3,0.5,0.4,0.8,0.5c1.3,0.3,2.6,0.5,4,0.7c0,5.6-0.1,11.2-0.1,16.9c0,0.7,0,1.4,0.4,2s1.2,0.9,1.7,0.4c-0.2-6.4-0.4-12.7-0.5-19.1c1.6,0.1,3.1,0.1,4.6-0.1c-1.2-6.8-2.4-13.5-3.6-20.3L550.3,197.9z"/><g transform="matrix(1, 0, 0, 1, 0, 0)"><path class="st1" d="M179.9,278.4c-1.6,6.9-3,13.6-5.5,20.3c0.7,0.5,1.6,0.4,2.4,0.3c0.5-0.1,1-0.2,1.5-0.3c0.2,4.3,0.3,8.7,0.5,13c0,0.2,0,0.3,0.1,0.4s0.3,0.1,0.4,0c0.3-0.1,0.7-0.2,1-0.2c0.1,0,0.3-0.1,0.3-0.2c0.1-0.1,0.1-0.3,0.1-0.5c-0.5-4.3-0.8-8.5-0.9-12.8c1-0.2,1.9-0.3,2.9-0.5c0.2,0,0.5-0.1,0.6-0.3c0.1-0.2,0.1-0.4,0.1-0.5C183.1,290.7,181.8,284.5,179.9,278.4z"/></g><path class="st1" d="M165.5,282.1c-1.4-6-2.7-12-3.7-18c-3.9,12.2-9.2,23-14.6,34.6c3.5,0,7.1-0.1,10.6-0.3c-0.1,5.8-0.2,11.6-0.4,17.4c1.1-0.3,2.2-0.6,3.3-0.9c0.6-5.6,0.9-11.2,0.8-16.8c3.1-0.3,6.1-0.6,9.2-1.1C168.2,292.4,166.8,287.2,165.5,282.1z"/><path class="st1" d="M108.1,317.8c-0.5-2.1-1-4.3-1.3-6.4c-1.4,4.3-3.3,8.2-5.2,12.4c1.3,0,2.5,0,3.8-0.1c0,2.1-0.1,9.8-0.1,11.9c0.4-0.1,0.8-0.2,1.2-0.3c0.2-2,0.3-9.7,0.3-11.7c1.1-0.1,2.2-0.2,3.3-0.4C109.1,321.5,108.6,319.7,108.1,317.8z"/><path class="st1" d="M125.6,289.9l-0.9,1.1c-3.6,5.8-6.4,12.1-8.2,18.7l1.5-0.6c1.2,0.2,2.5,0.3,3.8,0.3c-0.4,4.3-0.8,8.7-1.3,13c-0.2,2.3-0.5,4.7-0.8,7c0.8,0,1.6-0.1,2.4-0.1c0.6-6.7,1.3-13.3,1.9-20c1.7-0.2,3.5-0.6,5.1-1.3c0.1-0.1,0.3-0.1,0.3-0.2c0.1-0.1,0-0.3,0-0.4C128.1,301.5,126.9,295.7,125.6,289.9z"/><path class="st1" d="M265.6,327.1c-0.9-1.7-1.4-3.5-1.9-5.3c-0.5-2.1-1-4.3-1.3-6.4c-1.4,4.3-3.3,8.2-5.2,12.4c1.3,0,2.5,0,3.8-0.1c0,2.1-0.1,9.8-0.1,11.9c0.4-0.1,0.8-0.2,1.2-0.3c0.2-2,0.3-9.7,0.3-11.7C263.5,327.4,264.6,327.3,265.6,327.1z"/><path class="st1" d="M253.1,316.4c-1.3-5.8-2.6-11.6-3.9-17.4l-0.9,1.1c-3.6,5.8-6.4,12.1-8.2,18.7l1.5-0.6c1.2,0.2,2.5,0.3,3.8,0.3c-0.4,4.3-0.8,8.7-1.3,13c-0.2,2.3-0.5,4.7-0.8,7c0.8,0,1.6-0.1,2.4-0.1c0.6-6.7,1.3-13.3,1.9-20c1.7-0.2,3.5-0.6,5.1-1.3c0.1-0.1,0.3-0.1,0.3-0.2C253.1,316.7,253.1,316.6,253.1,316.4z"/><path class="st1" d="M205.7,292.7c-1.6,3.8-3.4,7.5-5.4,11.1c1.1,0.3,2.2,0.6,3.2,0.9c-0.4,3.2-0.7,6.3-1.1,9.5v0.1h0.1c0.6,0,1.1,0,1.7,0c0.4-3.1,0.7-6.3,0.9-9.4c1.2,0.2,2.4,0.2,3.6,0c-1.9-3.9-2.8-8.3-2.8-12.6L205.7,292.7z"/><path class="st1" d="M232.3,284.8c-1.8,6-4.1,11.8-6.8,17.4c-0.1,0.3-0.2,0.5-0.1,0.8c0.1,0.3,0.5,0.4,0.8,0.5c1.3,0.3,2.6,0.5,4,0.7c0,5.6-0.1,11.2-0.1,16.9c0,0.7,0,1.4,0.4,2s1.2,0.9,1.7,0.4c-0.2-6.4-0.4-12.7-0.5-19.1c1.6,0.1,3.1,0.1,4.6-0.1c-1.2-6.8-2.4-13.5-3.6-20.3L232.3,284.8z"/></svg>