<?xml version="1.0" encoding="utf-8"?>
<svg
	xmlns="http://www.w3.org/2000/svg"
	xmlns:xlink="http://www.w3.org/1999/xlink" version="1.1" id="master-artboard" x="0px" y="0px" viewBox="0 0 720 504" style="enable-background:new 0 0 720 504;" preserveAspectRatio="xMinYMin meet" xml:space="preserve">
	<style type="text/css">.st2{fill:#8DE4AF;}.st3{fill:#053A6B;}.st4{fill:#05396B;}</style>
	<path class="st2" d="M722,168.7c-15.1,8.9-33.1,17.7-54.1,24.7c-5.8,1.9-11.6,3.6-17.1,5.1c0,0-52.3,9.1-62.3,24.5  c-0.6,0.9-3.4,5.3-7.9,11.2c-1.5,2-3.3,4.2-5.6,6.7c-9.4,10.2-18.9,17.1-23.7,20.9c-3.8,3-8.3,6.1-14.3,9.5  c-25.3,14.5-56.5,13.7-85.8,12.4c-30.1-1.3-60.2-2.6-90.3-4c-22.2-1-45.5-2.2-64.8-13.1c-20.4-11.5-35.9-33.2-59.1-36.6  c-22.7-3.3-45.8,12.5-67.9,6.4c-16.9-4.6-27.6-20.4-39.6-33C96.4,169.2,43.7,156-2,170.3v201.6c1.5,1.2,2.2,2.4,3.9,3.6  C16,385.3,33,390,49.7,394.1c153.5,37.3,314.1,36.7,471.8,24.4c60.1-4.7,120.7-11.1,178.1-29.2c7.7-2.4,15-3.5,22.4-6.9  C722,311.2,722,239.9,722,168.7z"/>
	<g transform="matrix(1, 0, 0, 1, 0, 0)">
		<path class="st3" d="M13.9,173.5c2.9-12.7,7.2-25,12.9-36.7c5.4,10.4,2.2,23.3,6,34.4c4.9-5.9,8.4-12.9,10.1-20.3   c1.9,1.1,2.5,3.4,3,5.6c1.1,5.4,2.3,10.8,3.4,16.2c2.6-5.9,5.2-11.9,7.8-17.8c2.4,6.9,3.9,14.1,4.4,21.4"/>
	</g>
	<path class="st3" d="M104.5,183.8c2.2-5.1,4.4-10.3,6.6-15.4c0.9,8.1,1.1,16.3,0.6,24.5c1.3-5.2,3.5-10.1,6.6-14.5  c1,6.8,2,13.6,3.1,20.4c1.7-2.9,3.3-5.7,5-8.6c-0.2,6.1,0.5,12.3,2.1,18.2c1.8-2.9,3.6-5.9,5.4-8.8c1.7,7.4,3,15,3.9,22.5"/>
	<path class="st4" d="M206.8,236c0.3-5.9,1.2-11.8,2.7-17.5c0.4,6.9,1.8,13.7,4.1,20.3c1-7,2.5-13.9,4.6-20.7c1,6.1,2,12.2,3.1,18.3  c1.8-6.9,3.7-13.9,5.5-20.8c1.3,9.4,2.8,18.9,4.4,28.3c2.5-7.1,5.1-14.1,7.6-21.1c0.6,4.4,1.4,8.7,2.3,13c2.3-2,3.9-4.9,4.4-7.9  c0.8,3.5,1.5,7,2.3,10.5c2-3.5,4.1-7,6.1-10.4c1.1,3.5,2,7.2,2.5,10.9c0.6-8,1.8-16,3.6-23.9c1.2,10.3,2.5,20.5,3.7,30.8  c1.3-3.7,2.5-7.5,3.8-11.2c-0.1,4.6,0.8,9.2,2.7,13.3c0.9-1.5,1.8-3,2.7-4.5c1.6,4.5,2,9.5,1.2,14.2"/>
	<path class="st3" d="M208.7,238.9c-0.8-6.4-3-12.7-6.4-18.2c-1,7.9-1.3,15.8-0.7,23.7"/>
	<path class="st3" d="M345.9,282.6c2.7-6.3,5.4-12.7,8.1-19c1.1,6.3,2.2,12.7,3.2,19c2.4-4.4,4.7-8.8,7.1-13.2  c0,3.8,0.8,7.6,2.6,10.9c2.4-4,4.4-8.2,5.7-12.7c1.7,7.5,3.5,14.9,5.2,22.4"/>
	<path class="st3" d="M606.4,229.5c0.7-5.1,2.7-9.9,5.9-13.9c0.9,4.8,1.9,9.6,3.1,14.4c3.4-5.3,6.1-11.1,7.8-17.2  c4.2,2.1-0.4,10.1,3.4,13c2.2-5.8,4.7-11.5,7.7-16.9c0.9,8,1.8,16.1,2.7,24.1c3.7-12,7.5-24,11.2-36.1c0.4,10.9,0.8,21.8,1.2,32.7"/>
	<path class="st3" d="M687.8,205.2c1.4-9.5,3.8-18.8,7-27.8c-0.5,7.5-1.1,15.2,0.3,22.6c4.4-10.7,8.1-21.6,11-32.8  c0.3,9-0.3,18-1.7,26.8"/>
</svg>