<?xml version="1.0" encoding="utf-8"?>
<!-- Generator: Adobe Illustrator 22.1.0, SVG Export Plug-In . SVG Version: 6.00 Build 0)  -->
<svg version="1.1" id="master-artboard" xmlns="http://www.w3.org/2000/svg" xmlns:xlink="http://www.w3.org/1999/xlink" x="0px"
	 y="0px" viewBox="0 0 268 41.9" style="enable-background:new 0 0 268 41.9;" xml:space="preserve">
<style type="text/css">
	.st0{fill:#FFFFFF;}
</style>
<path class="st0" d="M26.4,11.2c2.5-3.2,5-4.9,7.4-4.9c2.5,0,4.6,0.9,6.5,2.7c0.9,0.9,1.5,1.9,1.9,3l0.1,0.5c0.4,1.3,0.5,2,0.5,2.3
	c0,0.3,0,0.5-0.1,0.7c0.1,0.1,0.1,0.2,0.1,0.4l0,0.8c0,1,0,1.6,0,2v12.3H30.8l0-11.8l0-0.4c0-1.9-0.5-2.9-1.6-2.9
	c-1.2,0-1.8,1.1-1.8,3.2l0,1.4v10.5l-5.6,0h-5.5l0-10.7l0-1.3c0-1.7-0.5-2.8-1.6-3.1c-1.3,0.1-1.9,1-1.9,2.9l0,1.2v11l-6.4,0H0l0-12
	v-12l5.5,0H11l0.1,0.5c0.5,1.7,0.9,3.1,1.1,4.1c0.9-1.5,1.9-2.8,3-3.8c1.2-1,2.3-1.6,3.5-1.6c0.4,0,0.7,0,1.1,0
	c1.2,0,2.3,0.5,3.6,1.4C24.6,8.7,25.6,9.9,26.4,11.2z M74.2,19c0,0.1-0.1,0.2-0.1,0.2v0.2c0,2.2-0.5,4.2-1.5,5.9h0
	c-1.4,2.1-3.3,3.7-5.7,4.8c-2.4,1.1-4.8,1.7-7.2,1.7s-4.3-0.2-5.9-0.7c-1.6-0.5-3-1.1-4.3-2c-1.3-0.9-2.3-1.7-2.9-2.6
	c-1.5-1.9-2.3-4.6-2.3-8.1c0-0.1,0-0.2,0.1-0.3v-0.3c0-0.1-0.1-0.1-0.1-0.2l0-0.2h0c0.3-2.3,0.7-3.9,1.5-4.6c0-0.1,0.1-0.3,0.3-0.5
	v0l0.3-0.5c1.6-2,3.4-3.4,5.4-4.1l0.7-0.3c0.9-0.4,2.1-0.7,3.7-1l0.6-0.1c0.1,0,0.3,0,0.6,0c0.3,0,0.5,0,0.6-0.1l0.9,0
	c0,0,0.1,0,0.1,0c0.1,0,0.1,0,0.2,0l0,0c0.1,0,0.2,0.1,0.4,0.1c0,0,0.1-0.1,0.3-0.1c2.9,0,5.4,0.6,7.4,1.8l0.4,0.2
	C72,10.4,74.2,14,74.2,19 M61.7,19.2c0-2.7-0.4-4.5-1.1-5.4c-0.3-0.4-0.7-0.6-1.1-0.6c-0.4,0-0.8,0.2-1.1,0.7
	c-0.3,0.5-0.6,1.3-0.8,2.3c-0.2,1-0.3,2-0.3,2.8c0,0.8,0,1.5,0.1,2.1c0.1,0.6,0.2,1.2,0.3,1.8c0.1,0.6,0.4,1.2,0.7,1.6
	c0.3,0.4,0.7,0.7,1,0.7C61,25.2,61.7,23.2,61.7,19.2z M105.6,19c0,0.1-0.1,0.2-0.1,0.2v0.2c0,2.2-0.5,4.2-1.5,5.9h0
	c-1.4,2.1-3.3,3.7-5.7,4.8c-2.4,1.1-4.8,1.7-7.2,1.7c-2.4,0-4.3-0.2-5.9-0.7c-1.6-0.5-3-1.1-4.3-2c-1.3-0.9-2.3-1.7-2.9-2.6
	c-1.5-1.9-2.3-4.6-2.3-8.1c0-0.1,0-0.2,0.1-0.3v-0.3c0-0.1-0.1-0.1-0.1-0.2l0-0.2h0c0.3-2.3,0.7-3.9,1.5-4.6c0-0.1,0.1-0.3,0.3-0.5
	v0l0.3-0.5c1.6-2,3.4-3.4,5.4-4.1l0.7-0.3c0.9-0.4,2.1-0.7,3.7-1l0.6-0.1c0.1,0,0.3,0,0.6,0c0.3,0,0.5,0,0.6-0.1l0.9,0
	c0,0,0.1,0,0.1,0c0.1,0,0.1,0,0.2,0l0,0c0.1,0,0.2,0.1,0.4,0.1c0,0,0.1-0.1,0.3-0.1c2.9,0,5.4,0.6,7.4,1.8L99,8.3
	C103.4,10.4,105.6,14,105.6,19 M93.1,19.2c0-2.7-0.4-4.5-1.1-5.4c-0.3-0.4-0.7-0.6-1.1-0.6c-0.4,0-0.8,0.2-1.1,0.7
	c-0.3,0.5-0.6,1.3-0.8,2.3c-0.2,1-0.3,2-0.3,2.8c0,0.8,0,1.5,0.1,2.1c0.1,0.6,0.2,1.2,0.3,1.8c0.1,0.6,0.4,1.2,0.7,1.6
	c0.3,0.4,0.7,0.7,1,0.7C92.4,25.2,93.1,23.2,93.1,19.2z M124.1,7.4l0.1-2V0h6l6,0c0,0,0,10.4,0,31.3H126c-0.3-0.5-0.5-0.9-0.6-1.3
	l-0.8-1.4c-1.3,1.1-2.5,2-3.6,2.5c-1.1,0.5-2.5,0.8-4.1,0.8c-2.7,0-4.9-1.1-6.7-3.2c-1.8-2.1-2.7-4.8-2.7-8.1c0-2.2,0.2-4.2,0.7-6.2
	c0.5-1.9,1.4-3.6,2.6-5.2c1.2-1.6,2.7-2.5,4.6-2.8l0.3,0l1.7-0.1c1.6,0,3.5,0.7,5.5,2.1l0.4,0.3l0,0c0.3,0.2,0.5,0.3,0.6,0.4
	l0.6-0.3c-0.2-0.7-0.3-1.2-0.3-1.4V7.4 M119.9,19.7l0,0.7v0.5c0,0.7,0.1,1.5,0.4,2.3l0,0c0.1,0.4,0.3,0.9,0.8,1.5
	c0.5,0.6,0.9,0.9,1.4,0.9c0.2,0,0.3,0,0.4-0.1c1.4-0.6,2.1-2.5,2.1-5.6c0-2.2-0.4-3.9-1.1-5.2c-0.5-0.8-0.9-1.2-1.5-1.2
	c-0.5,0-1,0.4-1.4,1.2C120.2,16.2,119.9,17.8,119.9,19.7z M149.9,13.9c-0.2,3.8-0.2,7.7-0.2,11.6v6h-1.5l-0.5,0l-7.1,0.1
	c-0.5,0-0.7,0-0.7,0c0,0,0-0.1,0.1-0.3v-0.1l0-0.1c-0.1-1-0.1-2.1-0.1-3.5L140,5.2l0-1v-1l0-1.9c0-0.1,0.1-0.3,0.2-0.4h2.7l1.6,0
	c3.8,0,6.5,0.1,8.1,0.2c1.6,0.1,2.8,0.2,3.5,0.2c0.4,2.3,1,5.3,1.7,9.1l1.4,7.2h0.7l2.6-13.1c0-0.2,0.1-0.8,0.3-1.8
	c0.1-1,0.3-1.5,0.3-1.6h0.1l13-0.1l0.8,0h2.2c0.1,0,0.2,0.3,0.2,0.7l0.2,7.6c0.2,6.3,0.3,11.2,0.3,14.7c0,2.7,0,5.2-0.1,7.6
	c0,0.2-0.3,0.3-0.8,0.3l-0.9,0c-0.7,0-1.3,0-1.6,0h-1c-1.3,0-3.2,0-5.7,0c-0.5-0.4-0.7-2.2-0.7-5.4l0-6.3v-1.6c0-1.4,0-2.5,0-3.2
	l-0.8-0.1c-0.4,1.6-1.3,5.2-2.5,10.8l-0.2,0.8c-0.1,0.4-0.3,1.2-0.5,2.2c-0.2,1.1-0.4,1.9-0.5,2.4c-0.2,0.2-0.9,0.3-2.1,0.3h-0.3
	l-2.2-0.1l-1.2,0h-0.9l-1.6,0h-0.5c-0.6,0-1-0.1-1-0.4l0,0l-1.8-7.9c0-0.2-0.2-0.6-0.3-1.3c-0.2-0.7-0.3-1.2-0.3-1.7l-1.5-6.5
	L149.9,13.9z M211.5,19c0,0.1-0.1,0.2-0.1,0.2v0.2c0,2.2-0.5,4.2-1.5,5.9h0c-1.4,2.1-3.3,3.7-5.7,4.8c-2.4,1.1-4.8,1.7-7.2,1.7
	s-4.3-0.2-5.9-0.7c-1.6-0.5-3-1.1-4.3-2c-1.3-0.9-2.3-1.7-2.9-2.6c-1.5-1.9-2.3-4.6-2.3-8.1c0-0.1,0-0.2,0.1-0.3v-0.3
	c0-0.1-0.1-0.1-0.1-0.2l0-0.2h0c0.3-2.3,0.7-3.9,1.5-4.6c0-0.1,0.1-0.3,0.3-0.5v0l0.3-0.5c1.6-2,3.4-3.4,5.4-4.1l0.7-0.3
	c0.9-0.4,2.1-0.7,3.7-1l0.6-0.1c0.1,0,0.3,0,0.6,0c0.3,0,0.5,0,0.6-0.1l0.9,0c0,0,0.1,0,0.1,0c0.1,0,0.1,0,0.2,0l0,0
	c0.1,0,0.2,0.1,0.4,0.1c0,0,0.1-0.1,0.3-0.1c2.9,0,5.4,0.6,7.4,1.8l0.4,0.2C209.3,10.4,211.5,14,211.5,19 M199,19.2
	c0-2.7-0.4-4.5-1.1-5.4c-0.3-0.4-0.7-0.6-1.1-0.6c-0.4,0-0.8,0.2-1.1,0.7c-0.3,0.5-0.6,1.3-0.8,2.3c-0.2,1-0.3,2-0.3,2.8
	c0,0.8,0,1.5,0.1,2.1c0.1,0.6,0.2,1.2,0.3,1.8c0.1,0.6,0.4,1.2,0.7,1.6c0.3,0.4,0.7,0.7,1,0.7C198.3,25.2,199,23.2,199,19.2z
	 M217.7,5.2L217.6,0h5.8l5.8,0l0,5.2H217.7 M213.9,41.8c-0.4-0.3-0.5-0.6-0.5-0.9v-0.1c0-0.2,0.1-0.3,0.1-0.3v-0.4l0.1-1.9v-4.6h0.7
	c1.7,0,2.7-0.6,3.1-1.7c0.2-0.5,0.3-1.3,0.3-2.1v-0.3l0-2.5V7.2h5.8l5.9,0c0,8.6,0.1,17.3,0.1,26.1v0.1c0,0.3,0.1,0.5,0.1,0.8
	c0,1.1-0.2,2.3-0.7,3.5c-0.5,1.2-1.1,2-1.8,2.6h0c-1.7,1.1-4.2,1.7-7.6,1.7l-2.1-0.1h-0.1l-0.1,0h-0.4c-0.1,0-0.1,0-0.2,0h-0.4
	c-0.2,0.1-0.4,0.1-0.7,0.1c-0.2,0-0.5,0-0.8,0h-0.1C214.2,41.8,214,41.8,213.9,41.8 M213.5,33.7h-0.1l0.1-0.2V33.7z M261.3,19
	c0,0.1-0.1,0.2-0.1,0.2v0.2c0,2.2-0.5,4.2-1.5,5.9h0c-1.4,2.1-3.3,3.7-5.7,4.8c-2.4,1.1-4.8,1.7-7.2,1.7c-2.4,0-4.3-0.2-5.9-0.7
	c-1.6-0.5-3-1.1-4.3-2c-1.3-0.9-2.3-1.7-2.9-2.6c-1.5-1.9-2.3-4.6-2.3-8.1c0-0.1,0-0.2,0.1-0.3v-0.3c0-0.1-0.1-0.1-0.1-0.2l0-0.2h0
	c0.3-2.3,0.7-3.9,1.5-4.6c0-0.1,0.1-0.3,0.3-0.5v0l0.3-0.5c1.6-2,3.4-3.4,5.4-4.1l0.7-0.3c0.9-0.4,2.1-0.7,3.7-1l0.6-0.1
	c0.1,0,0.3,0,0.6,0c0.3,0,0.5,0,0.6-0.1l0.9,0c0,0,0.1,0,0.1,0c0.1,0,0.1,0,0.2,0l0,0c0.1,0,0.2,0.1,0.4,0.1c0,0,0.1-0.1,0.3-0.1
	c2.9,0,5.4,0.6,7.4,1.8l0.4,0.2C259.1,10.4,261.3,14,261.3,19 M248.8,19.2c0-2.7-0.4-4.5-1.1-5.4c-0.3-0.4-0.7-0.6-1.1-0.6
	c-0.4,0-0.8,0.2-1.1,0.7c-0.3,0.5-0.6,1.3-0.8,2.3c-0.2,1-0.3,2-0.3,2.8c0,0.8,0,1.5,0.1,2.1c0.1,0.6,0.2,1.2,0.3,1.8
	c0.1,0.6,0.4,1.2,0.7,1.6c0.3,0.4,0.7,0.7,1,0.7C248.1,25.2,248.8,23.2,248.8,19.2z"/>
</svg>
